HIERARCHY
ROOT hip
{
  OFFSET 0 90.174 2.4664
  CHANNELS 6 Xposition Yposition Zposition Zrotation Xrotation Yrotation
  JOINT abdomen
  {
    OFFSET 0 -1.186 -1.5018
    CHANNELS 6 Xposition Yposition Zposition Zrotation Xrotation Yrotation
    JOINT abdomen2
    {
      OFFSET 0 9.964 0.2134
      CHANNELS 6 Xposition Yposition Zposition Zrotation Xrotation Yrotation
      JOINT chest
      {
        OFFSET 0 13.134 -3.2573
        CHANNELS 6 Xposition Yposition Zposition Zrotation Xrotation Yrotation
        JOINT neck
        {
          OFFSET 0 20.686 -1.6905
          CHANNELS 6 Xposition Yposition Zposition Zrotation Xrotation Yrotation
          JOINT head
          {
            OFFSET 0 7.238 -0.1237
            CHANNELS 6 Xposition Yposition Zposition Zrotation Xrotation Yrotation
            End Site
            {
              OFFSET 0 0 0
            }
          }
        }
        JOINT lCollar
        {
          OFFSET 1.7069 20.075 5.0056
          CHANNELS 6 Xposition Yposition Zposition Zrotation Xrotation Yrotation
          JOINT lShldr
          {
            OFFSET 13.6458 -0.047 -4.849
            CHANNELS 6 Xposition Yposition Zposition Zrotation Xrotation Yrotation
            JOINT lForeArm
            {
              OFFSET 28.3255 -0.9759 2.2888
              CHANNELS 6 Xposition Yposition Zposition Zrotation Xrotation Yrotation
              JOINT lHand
              {
                OFFSET 22.1583 -0.53 10.8316
                CHANNELS 6 Xposition Yposition Zposition Zrotation Xrotation Yrotation
                JOINT lThumb1
                {
                  OFFSET 0.786 0.112 2.5817
                  CHANNELS 6 Xposition Yposition Zposition Zrotation Xrotation Yrotation
                  JOINT lThumb2
                  {
                    OFFSET 0.3601 -0.878 4.2331
                    CHANNELS 6 Xposition Yposition Zposition Zrotation Xrotation Yrotation
                    JOINT lThumb2_End
                    {
                      OFFSET 1.8127 -1.216 2.2227
                      CHANNELS 6 Xposition Yposition Zposition Zrotation Xrotation Yrotation
                      End Site
                      {
                        OFFSET 0.0181 -0.0122 0.0222
                      }
                    }
                  }
                }
                JOINT lCarpal1
                {
                  OFFSET 0.9571 1.114 1.7695
                  CHANNELS 6 Xposition Yposition Zposition Zrotation Xrotation Yrotation
                  JOINT lIndex1
                  {
                    OFFSET 4.1246 0.487 4.1451
                    CHANNELS 6 Xposition Yposition Zposition Zrotation Xrotation Yrotation
                    JOINT lIndex2
                    {
                      OFFSET 3.4052 -1.454 2.7682
                      CHANNELS 6 Xposition Yposition Zposition Zrotation Xrotation Yrotation
                      JOINT lIndex2_End
                      {
                        OFFSET 1.4531 -1.795 1.2713
                        CHANNELS 6 Xposition Yposition Zposition Zrotation Xrotation Yrotation
                        End Site
                        {
                          OFFSET 0.0145 -0.0179 0.0127
                        }
                      }
                    }
                  }
                  JOINT lMid1
                  {
                    OFFSET 5.6954 0.21 2.1184
                    CHANNELS 6 Xposition Yposition Zposition Zrotation Xrotation Yrotation
                    JOINT lMid2
                    {
                      OFFSET 3.9766 -1.54 2.3863
                      CHANNELS 6 Xposition Yposition Zposition Zrotation Xrotation Yrotation
                      JOINT lMid2_End
                      {
                        OFFSET 1.4042 -1.926 1.125
                        CHANNELS 6 Xposition Yposition Zposition Zrotation Xrotation Yrotation
                        End Site
                        {
                          OFFSET 0.014 -0.0193 0.0113
                        }
                      }
                    }
                  }
                }
                JOINT lCarpal2
                {
                  OFFSET 2.0956 0.66 -0.3894
                  CHANNELS 6 Xposition Yposition Zposition Zrotation Xrotation Yrotation
                  JOINT lRing1
                  {
                    OFFSET 5.0395 -0.09 2.4971
                    CHANNELS 6 Xposition Yposition Zposition Zrotation Xrotation Yrotation
                    JOINT lRing2
                    {
                      OFFSET 3.7921 -1.552 1.4806
                      CHANNELS 6 Xposition Yposition Zposition Zrotation Xrotation Yrotation
                      JOINT lRing2_End
                      {
                        OFFSET 1.4655 -1.808 0.9609
                        CHANNELS 6 Xposition Yposition Zposition Zrotation Xrotation Yrotation
                        End Site
                        {
                          OFFSET 0.0147 -0.0181 0.0096
                        }
                      }
                    }
                  }
                  JOINT lPinky1
                  {
                    OFFSET 4.9141 -1.269 0.3591
                    CHANNELS 6 Xposition Yposition Zposition Zrotation Xrotation Yrotation
                    JOINT lPinky2
                    {
                      OFFSET 3.1477 -1.685 0.8462
                      CHANNELS 6 Xposition Yposition Zposition Zrotation Xrotation Yrotation
                      JOINT lPinky2_End
                      {
                        OFFSET 0.8055 -1.585 0.7955
                        CHANNELS 6 Xposition Yposition Zposition Zrotation Xrotation Yrotation
                        End Site
                        {
                          OFFSET 0.0081 -0.0158 0.008
                        }
                      }
                    }
                  }
                }
              }
            }
          }
        }
        JOINT rCollar
        {
          OFFSET -1.7069 20.075 5.0056
          CHANNELS 6 Xposition Yposition Zposition Zrotation Xrotation Yrotation
          JOINT rShldr
          {
            OFFSET -13.6458 -0.047 -4.849
            CHANNELS 6 Xposition Yposition Zposition Zrotation Xrotation Yrotation
            JOINT rForeArm
            {
              OFFSET -28.3255 -0.9759 2.2888
              CHANNELS 6 Xposition Yposition Zposition Zrotation Xrotation Yrotation
              JOINT rHand
              {
                OFFSET -22.1583 -0.53 10.8316
                CHANNELS 6 Xposition Yposition Zposition Zrotation Xrotation Yrotation
                JOINT rThumb1
                {
                  OFFSET -0.786 0.112 2.5817
                  CHANNELS 6 Xposition Yposition Zposition Zrotation Xrotation Yrotation
                  JOINT rThumb2
                  {
                    OFFSET -0.3601 -0.878 4.2331
                    CHANNELS 6 Xposition Yposition Zposition Zrotation Xrotation Yrotation
                    JOINT rThumb2_End
                    {
                      OFFSET -1.8127 -1.216 2.2227
                      CHANNELS 6 Xposition Yposition Zposition Zrotation Xrotation Yrotation
                      End Site
                      {
                        OFFSET -0.0181 -0.0122 0.0222
                      }
                    }
                  }
                }
                JOINT rCarpal1
                {
                  OFFSET -0.9571 1.114 1.7695
                  CHANNELS 6 Xposition Yposition Zposition Zrotation Xrotation Yrotation
                  JOINT rIndex1
                  {
                    OFFSET -4.1246 0.487 4.1451
                    CHANNELS 6 Xposition Yposition Zposition Zrotation Xrotation Yrotation
                    JOINT rIndex2
                    {
                      OFFSET -3.4052 -1.454 2.7682
                      CHANNELS 6 Xposition Yposition Zposition Zrotation Xrotation Yrotation
                      JOINT rIndex2_End
                      {
                        OFFSET -1.4531 -1.795 1.2713
                        CHANNELS 6 Xposition Yposition Zposition Zrotation Xrotation Yrotation
                        End Site
                        {
                          OFFSET -0.0145 -0.018 0.0127
                        }
                      }
                    }
                  }
                  JOINT rMid1
                  {
                    OFFSET -5.6954 0.21 2.1184
                    CHANNELS 6 Xposition Yposition Zposition Zrotation Xrotation Yrotation
                    JOINT rMid2
                    {
                      OFFSET -3.9766 -1.54 2.3863
                      CHANNELS 6 Xposition Yposition Zposition Zrotation Xrotation Yrotation
                      JOINT rMid2_End
                      {
                        OFFSET -1.4042 -1.926 1.125
                        CHANNELS 6 Xposition Yposition Zposition Zrotation Xrotation Yrotation
                        End Site
                        {
                          OFFSET -0.014 -0.0193 0.0113
                        }
                      }
                    }
                  }
                }
                JOINT rCarpal2
                {
                  OFFSET -2.0956 0.66 -0.3894
                  CHANNELS 6 Xposition Yposition Zposition Zrotation Xrotation Yrotation
                  JOINT rRing1
                  {
                    OFFSET -5.0395 -0.09 2.4971
                    CHANNELS 6 Xposition Yposition Zposition Zrotation Xrotation Yrotation
                    JOINT rRing2
                    {
                      OFFSET -3.7921 -1.552 1.4806
                      CHANNELS 6 Xposition Yposition Zposition Zrotation Xrotation Yrotation
                      JOINT rRing2_End
                      {
                        OFFSET -1.4655 -1.808 0.9609
                        CHANNELS 6 Xposition Yposition Zposition Zrotation Xrotation Yrotation
                        End Site
                        {
                          OFFSET -0.0147 -0.0181 0.0096
                        }
                      }
                    }
                  }
                  JOINT rPinky1
                  {
                    OFFSET -4.9141 -1.269 0.3592
                    CHANNELS 6 Xposition Yposition Zposition Zrotation Xrotation Yrotation
                    JOINT rPinky2
                    {
                      OFFSET -3.1477 -1.685 0.8462
                      CHANNELS 6 Xposition Yposition Zposition Zrotation Xrotation Yrotation
                      JOINT rPinky2_End
                      {
                        OFFSET -0.8055 -1.585 0.7955
                        CHANNELS 6 Xposition Yposition Zposition Zrotation Xrotation Yrotation
                        End Site
                        {
                          OFFSET -0.0081 -0.0158 0.008
                        }
                      }
                    }
                  }
                }
              }
            }
          }
        }
      }
    }
  }
  JOINT lThigh
  {
    OFFSET 8.367 -8.2066 0.5982
    CHANNELS 6 Xposition Yposition Zposition Zrotation Xrotation Yrotation
    JOINT lShin
    {
      OFFSET 2.1923 -43.463 -0.4932
      CHANNELS 6 Xposition Yposition Zposition Zrotation Xrotation Yrotation
      JOINT lFoot
      {
        OFFSET 0.7333 -45.8593 -2.6451
        CHANNELS 6 Xposition Yposition Zposition Zrotation Xrotation Yrotation
        End Site
        {
          OFFSET 2.6618 -4.2699 12.3931
        }
      }
    }
  }
  JOINT rThigh
  {
    OFFSET -8.367 -8.2066 0.5982
    CHANNELS 6 Xposition Yposition Zposition Zrotation Xrotation Yrotation
    JOINT rShin
    {
      OFFSET -2.1923 -43.463 -0.4931
      CHANNELS 6 Xposition Yposition Zposition Zrotation Xrotation Yrotation
      JOINT rFoot
      {
        OFFSET -0.7333 -45.8593 -2.6451
        CHANNELS 6 Xposition Yposition Zposition Zrotation Xrotation Yrotation
        End Site
        {
          OFFSET -2.6618 -4.2699 12.3931
        }
      }
    }
  }
}
MOTION
Frames:	4
Frame Time:	0.0333333
1.73613 29.3005 8.52493 3.79811 -0.000326299 -90.0098 0 -1.186 -1.5018 -0.308946 6.51122 -0.235579 0 9.964 0.2134 -0.596581 13.0236 -0.439892 8.88178e-016 13.134 -3.2573 -0.596595 13.0236 -0.439856 -1.77636e-015 20.686 -1.6905 2.8325 3.76586 -9.28148 -2.66454e-015 7.238 -0.1237 2.64188 -36.2825 -6.35026 1.7069 20.075 5.0056 -19.6144 -2.84875 -12.5339 13.6458 -0.047 -4.849 -5.21241 3.58065 -9.32712 28.3255 -0.9759 2.2888 -40.4347 0.830272 -3.55066 22.1583 -0.53 10.8316 33.4494 -25.4127 0.121013 0.786 0.112 2.5817 -9.54166e-015 1.59028e-015 -7.95139e-016 0.3601 -0.878 4.2331 -3.18055e-015 0 -0 1.8127 -1.216 2.2227 -3.18055e-015 4.77083e-015 -7.95139e-016 0.9571 1.114 1.7695 0 1.59028e-015 -0 4.1246 0.487 4.1451 -3.18055e-015 1.19271e-014 9.54166e-015 3.4052 -1.454 2.7682 -9.54166e-015 2.38542e-015 -0 1.4531 -1.795 1.2713 -6.36111e-015 3.18055e-015 -0 5.6954 0.21 2.1184 -3.18055e-015 1.19271e-014 9.54166e-015 3.9766 -1.54 2.3863 -9.54166e-015 2.38542e-015 -0 1.4042 -1.926 1.125 -6.36111e-015 3.18055e-015 -0 2.0956 0.66 -0.3894 0 1.59028e-015 -0 5.0395 -0.09 2.4971 -3.18055e-015 1.19271e-014 9.54166e-015 3.7921 -1.552 1.4806 -9.54166e-015 2.38542e-015 -0 1.4655 -1.808 0.9609 -6.36111e-015 3.18055e-015 -0 4.9141 -1.269 0.3591 -3.18055e-015 1.19271e-014 9.54166e-015 3.1477 -1.685 0.8462 -9.54166e-015 2.38542e-015 -0 0.8055 -1.585 0.7955 -6.36111e-015 3.18055e-015 -0 -1.7069 20.075 5.0056 16.3663 -4.27792 12.7665 -13.6458 -0.047 -4.849 43.2723 26.3366 -5.61108 -28.3255 -0.9759 2.2888 -23.8478 -28.9571 5.55909 -22.1583 -0.53 10.8316 -22.1474 -11.621 -18.5719 -0.786 0.112 2.5817 3.18055e-015 5.1684e-015 -3.18055e-015 -0.3601 -0.878 4.2331 3.18055e-015 -1.98785e-015 1.59028e-015 -1.8127 -1.216 2.2227 -0 -2.98177e-015 -0 -0.9571 1.114 1.7695 6.36111e-015 3.97569e-015 -2.38542e-015 -4.1246 0.487 4.1451 3.18055e-015 -2.42517e-014 7.95139e-015 -3.4052 -1.454 2.7682 0 3.18055e-015 -0 -1.4531 -1.795 1.2713 -3.18055e-015 -1.98785e-016 1.59028e-015 -5.6954 0.21 2.1184 3.18055e-015 -2.42517e-014 7.95139e-015 -3.9766 -1.54 2.3863 0 3.18055e-015 -0 -1.4042 -1.926 1.125 -3.18055e-015 -1.98785e-016 1.59028e-015 -2.0956 0.66 -0.3894 6.36111e-015 3.97569e-015 -2.38542e-015 -5.0395 -0.09 2.4971 3.18055e-015 -2.42517e-014 7.95139e-015 -3.7921 -1.552 1.4806 0 3.18055e-015 -0 -1.4655 -1.808 0.9609 -3.18055e-015 -1.98785e-016 1.59028e-015 -4.9141 -1.269 0.3592 3.18055e-015 -2.42517e-014 7.95139e-015 -3.1477 -1.685 0.8462 0 3.18055e-015 -0 -0.8055 -1.585 0.7955 -3.18055e-015 -1.98785e-016 1.59028e-015 8.367 -8.2066 0.5982 143.953 -51.0693 157.722 2.1923 -43.463 -0.4932 166.288 64.6453 -162.829 0.7333 -45.8593 -2.6451 5.71213 5.99888 3.02575 -8.367 -8.2066 0.5982 -143.926 -51.0631 -157.704 -2.1923 -43.463 -0.4931 -166.206 64.6413 162.745 -0.7333 -45.8593 -2.6451 -5.69496 6.00255 -2.99638 
1.75943 29.1171 8.52492 3.59813 -0.000295381 -90.0094 -1.77636e-015 -1.186 -1.5018 -0.310605 6.32887 -0.233995 0 9.964 0.2134 -0.600574 12.6589 -0.437278 -8.88178e-016 13.134 -3.2573 -0.600582 12.6589 -0.437256 0 20.686 -1.6905 2.81668 3.74806 -9.23444 -8.88178e-016 7.238 -0.1237 2.13899 -36.4405 -6.67287 1.7069 20.075 5.0056 -19.8077 -2.56826 -12.2136 13.6458 -0.047 -4.849 -5.21242 3.58064 -9.3271 28.3255 -0.9759 2.2888 -40.4347 0.830261 -3.55068 22.1583 -0.53 10.8316 33.4021 -24.685 0.326115 0.786 0.112 2.5817 1.42713e-006 -2.00182e-006 4.7628e-006 0.3601 -0.878 4.2331 2.3814e-006 -2.1168e-006 -7.13566e-007 1.8127 -1.216 2.2227 3.42895e-006 -5.74684e-007 5.29203e-007 0.9571 1.114 1.7695 3.18055e-015 7.95139e-016 7.95139e-016 4.1246 0.487 4.1451 1.42713e-006 -2.00182e-006 4.7628e-006 3.4052 -1.454 2.7682 2.3814e-006 -2.1168e-006 -7.13566e-007 1.4531 -1.795 1.2713 3.42895e-006 -5.74684e-007 5.29203e-007 5.6954 0.21 2.1184 1.42713e-006 -2.00182e-006 4.7628e-006 3.9766 -1.54 2.3863 2.3814e-006 -2.1168e-006 -7.13566e-007 1.4042 -1.926 1.125 3.42895e-006 -5.74684e-007 5.29203e-007 2.0956 0.66 -0.3894 3.18055e-015 7.95139e-016 7.95139e-016 5.0395 -0.09 2.4971 1.42713e-006 -2.00182e-006 4.7628e-006 3.7921 -1.552 1.4806 2.3814e-006 -2.1168e-006 -7.13566e-007 1.4655 -1.808 0.9609 3.42895e-006 -5.74684e-007 5.29203e-007 4.9141 -1.269 0.3591 1.42713e-006 -2.00182e-006 4.7628e-006 3.1477 -1.685 0.8462 2.3814e-006 -2.1168e-006 -7.13566e-007 0.8055 -1.585 0.7955 3.42895e-006 -5.74684e-007 5.29203e-007 -1.7069 20.075 5.0056 16.1538 -4.07666 12.2461 -13.6458 -0.047 -4.849 43.6377 26.3532 -5.60603 -28.3255 -0.9759 2.2888 -23.8478 -28.9571 5.55906 -22.1583 -0.53 10.8316 -22.0399 -10.7807 -18.5197 -0.786 0.112 2.5817 6.36111e-015 4.37326e-015 7.95139e-016 -0.3601 -0.878 4.2331 3.18055e-015 3.97569e-016 -7.95139e-016 -1.8127 -1.216 2.2227 3.18055e-015 1.98785e-016 -7.95139e-016 -0.9571 1.114 1.7695 6.36111e-015 4.37326e-015 7.95139e-016 -4.1246 0.487 4.1451 3.18055e-015 -2.82274e-014 8.74653e-015 -3.4052 -1.454 2.7682 -0 -4.57205e-015 -0 -1.4531 -1.795 1.2713 -1.65521e-032 3.97569e-016 2.38542e-015 -5.6954 0.21 2.1184 3.18055e-015 -2.82274e-014 8.74653e-015 -3.9766 -1.54 2.3863 -0 -4.57205e-015 -0 -1.4042 -1.926 1.125 -1.65521e-032 3.97569e-016 2.38542e-015 -2.0956 0.66 -0.3894 6.36111e-015 4.37326e-015 7.95139e-016 -5.0395 -0.09 2.4971 3.18055e-015 -2.82274e-014 8.74653e-015 -3.7921 -1.552 1.4806 -0 -4.57205e-015 -0 -1.4655 -1.808 0.9609 -1.65521e-032 3.97569e-016 2.38542e-015 -4.9141 -1.269 0.3592 3.18055e-015 -2.82274e-014 8.74653e-015 -3.1477 -1.685 0.8462 -0 -4.57205e-015 -0 -0.8055 -1.585 0.7955 -1.65521e-032 3.97569e-016 2.38542e-015 8.367 -8.2066 0.5982 143.948 -51.0728 157.717 2.1923 -43.463 -0.4932 166.288 64.6458 -162.83 0.7333 -45.8593 -2.6451 5.71164 5.99466 3.02538 -8.367 -8.2066 0.5982 -143.921 -51.0666 -157.699 -2.1923 -43.463 -0.4931 -166.206 64.6419 162.745 -0.7333 -45.8593 -2.6451 -5.69442 5.99832 -2.99603 
1.78274 28.9336 8.52492 3.39813 -0.000266477 -90.009 0 -1.186 -1.5018 -0.31224 6.14663 -0.2324 0 9.964 0.2134 -0.604505 12.2944 -0.43465 -8.88178e-016 13.134 -3.2573 -0.604495 12.2944 -0.434661 -8.88178e-016 20.686 -1.6905 2.80094 3.73079 -9.18747 0 7.238 -0.1237 1.6336 -36.5962 -6.99811 1.7069 20.075 5.0056 -20.0025 -2.28888 -11.8925 13.6458 -0.047 -4.849 -5.21242 3.58065 -9.3271 28.3255 -0.9759 2.2888 -40.4347 0.830254 -3.55068 22.1583 -0.53 10.8316 33.3523 -23.9576 0.530617 0.786 0.112 2.5817 1.27222e-014 -7.95139e-016 7.95139e-016 0.3601 -0.878 4.2331 3.18055e-015 -1.59028e-015 -0 1.8127 -1.216 2.2227 -6.36111e-015 -1.59028e-015 7.95139e-016 0.9571 1.114 1.7695 1.27222e-014 7.95139e-016 7.95139e-016 4.1246 0.487 4.1451 -3.18055e-015 -2.38542e-015 7.15625e-015 3.4052 -1.454 2.7682 6.36111e-015 7.95139e-016 7.95139e-016 1.4531 -1.795 1.2713 3.18055e-015 -7.95139e-016 -1.59028e-015 5.6954 0.21 2.1184 -3.18055e-015 -2.38542e-015 7.15625e-015 3.9766 -1.54 2.3863 6.36111e-015 7.95139e-016 7.95139e-016 1.4042 -1.926 1.125 3.18055e-015 -7.95139e-016 -1.59028e-015 2.0956 0.66 -0.3894 1.27222e-014 7.95139e-016 7.95139e-016 5.0395 -0.09 2.4971 -3.18055e-015 -2.38542e-015 7.15625e-015 3.7921 -1.552 1.4806 6.36111e-015 7.95139e-016 7.95139e-016 1.4655 -1.808 0.9609 3.18055e-015 -7.95139e-016 -1.59028e-015 4.9141 -1.269 0.3591 -3.18055e-015 -2.38542e-015 7.15625e-015 3.1477 -1.685 0.8462 6.36111e-015 7.95139e-016 7.95139e-016 0.8055 -1.585 0.7955 3.18055e-015 -7.95139e-016 -1.59028e-015 -1.7069 20.075 5.0056 15.9433 -3.87351 11.7266 -13.6458 -0.047 -4.849 44.0031 26.3698 -5.60108 -28.3255 -0.9759 2.2888 -23.8478 -28.9571 5.55908 -22.1583 -0.53 10.8316 -21.9334 -9.9404 -18.4693 -0.786 0.112 2.5817 3.18055e-015 1.78906e-015 -0 -0.3601 -0.878 4.2331 6.36111e-015 2.18663e-015 1.59028e-015 -1.8127 -1.216 2.2227 3.18055e-015 0 7.95139e-016 -0.9571 1.114 1.7695 0 0 -7.95139e-016 -4.1246 0.487 4.1451 6.36111e-015 -2.54444e-014 7.95139e-015 -3.4052 -1.454 2.7682 -3.18055e-015 -7.95139e-016 7.95139e-016 -1.4531 -1.795 1.2713 3.18055e-015 1.98785e-016 -7.95139e-016 -5.6954 0.21 2.1184 6.36111e-015 -2.54444e-014 7.95139e-015 -3.9766 -1.54 2.3863 -3.18055e-015 -7.95139e-016 7.95139e-016 -1.4042 -1.926 1.125 3.18055e-015 1.98785e-016 -7.95139e-016 -2.0956 0.66 -0.3894 0 0 -7.95139e-016 -5.0395 -0.09 2.4971 6.36111e-015 -2.54444e-014 7.95139e-015 -3.7921 -1.552 1.4806 -3.18055e-015 -7.95139e-016 7.95139e-016 -1.4655 -1.808 0.9609 3.18055e-015 1.98785e-016 -7.95139e-016 -4.9141 -1.269 0.3592 6.36111e-015 -2.54444e-014 7.95139e-015 -3.1477 -1.685 0.8462 -3.18055e-015 -7.95139e-016 7.95139e-016 -0.8055 -1.585 0.7955 3.18055e-015 1.98785e-016 -7.95139e-016 8.367 -8.2066 0.5982 143.942 -51.0763 157.712 2.1923 -43.463 -0.4932 166.288 64.6463 -162.83 0.7333 -45.8593 -2.6451 5.71112 5.99044 3.02505 -8.367 -8.2066 0.5982 -143.916 -51.0701 -157.694 -2.1923 -43.463 -0.4931 -166.205 64.6423 162.746 -0.7333 -45.8593 -2.6451 -5.69392 5.99406 -2.99564 
1.80605 28.7501 8.52491 3.19817 -0.000239668 -90.0086 -1.77636e-015 -1.186 -1.5018 -0.313837 5.96449 -0.23079 0 9.964 0.2134 -0.608347 11.9301 -0.43206 1.77636e-015 13.134 -3.2573 -0.608348 11.9301 -0.432083 8.88178e-016 20.686 -1.6905 2.78538 3.7128 -9.14046 2.66454e-015 7.238 -0.1237 1.12572 -36.7498 -7.32592 1.7069 20.075 5.0056 -20.1987 -2.01064 -11.5705 13.6458 -0.047 -4.849 -5.21243 3.58065 -9.32712 28.3255 -0.9759 2.2888 -40.4347 0.830267 -3.55069 22.1583 -0.53 10.8316 33.3 -23.2305 0.734641 0.786 0.112 2.5817 -3.6566e-007 2.83761e-006 -5.01362e-006 0.3601 -0.878 4.2331 3.18055e-015 -2.38542e-015 7.95139e-016 1.8127 -1.216 2.2227 3.6566e-007 -2.83761e-006 5.01362e-006 0.9571 1.114 1.7695 6.36111e-015 7.95139e-016 1.59028e-015 4.1246 0.487 4.1451 -3.6566e-007 2.83761e-006 -5.01362e-006 3.4052 -1.454 2.7682 3.18055e-015 -2.38542e-015 7.95139e-016 1.4531 -1.795 1.2713 3.6566e-007 -2.83761e-006 5.01362e-006 5.6954 0.21 2.1184 -3.6566e-007 2.83761e-006 -5.01362e-006 3.9766 -1.54 2.3863 3.18055e-015 -2.38542e-015 7.95139e-016 1.4042 -1.926 1.125 3.6566e-007 -2.83761e-006 5.01362e-006 2.0956 0.66 -0.3894 6.36111e-015 7.95139e-016 1.59028e-015 5.0395 -0.09 2.4971 -3.6566e-007 2.83761e-006 -5.01362e-006 3.7921 -1.552 1.4806 3.18055e-015 -2.38542e-015 7.95139e-016 1.4655 -1.808 0.9609 3.6566e-007 -2.83761e-006 5.01362e-006 4.9141 -1.269 0.3591 -3.6566e-007 2.83761e-006 -5.01362e-006 3.1477 -1.685 0.8462 3.18055e-015 -2.38542e-015 7.95139e-016 0.8055 -1.585 0.7955 3.6566e-007 -2.83761e-006 5.01362e-006 -1.7069 20.075 5.0056 15.7347 -3.66851 11.2081 -13.6458 -0.047 -4.849 44.3686 26.3865 -5.59628 -28.3255 -0.9759 2.2888 -23.8478 -28.9571 5.55908 -22.1583 -0.53 10.8316 -21.8281 -9.10033 -18.4206 -0.786 0.112 2.5817 -3.18055e-015 -1.98785e-015 -7.95139e-016 -0.3601 -0.878 4.2331 -0 -3.57812e-015 -0 -1.8127 -1.216 2.2227 -0 -5.1684e-015 -0 -0.9571 1.114 1.7695 -3.18055e-015 1.19271e-015 -7.95139e-016 -4.1246 0.487 4.1451 3.18055e-015 -2.90226e-014 1.19271e-014 -3.4052 -1.454 2.7682 -4.13804e-032 -2.98177e-015 -7.95139e-016 -1.4531 -1.795 1.2713 6.34499e-032 -4.57205e-015 7.95139e-016 -5.6954 0.21 2.1184 3.18055e-015 -2.90226e-014 1.19271e-014 -3.9766 -1.54 2.3863 -4.13804e-032 -2.98177e-015 -7.95139e-016 -1.4042 -1.926 1.125 6.34499e-032 -4.57205e-015 7.95139e-016 -2.0956 0.66 -0.3894 -3.18055e-015 1.19271e-015 -7.95139e-016 -5.0395 -0.09 2.4971 3.18055e-015 -2.90226e-014 1.19271e-014 -3.7921 -1.552 1.4806 -4.13804e-032 -2.98177e-015 -7.95139e-016 -1.4655 -1.808 0.9609 6.34499e-032 -4.57205e-015 7.95139e-016 -4.9141 -1.269 0.3592 3.18055e-015 -2.90226e-014 1.19271e-014 -3.1477 -1.685 0.8462 -4.13804e-032 -2.98177e-015 -7.95139e-016 -0.8055 -1.585 0.7955 6.34499e-032 -4.57205e-015 7.95139e-016 8.367 -8.2066 0.5982 143.937 -51.0797 157.707 2.1923 -43.463 -0.4932 166.288 64.6467 -162.831 0.7333 -45.8593 -2.6451 5.71062 5.98618 3.02467 -8.367 -8.2066 0.5982 -143.91 -51.0736 -157.688 -2.1923 -43.463 -0.4931 -166.205 64.6428 162.747 -0.7333 -45.8593 -2.6451 -5.69341 5.98981 -2.9953 
